<svg width="151" height="134" viewBox="0 0 151 134" fill="none" xmlns="http://www.w3.org/2000/svg">
<g clip-path="url(#clip0_1_15989)">
<path d="M110.438 92.9075C110.568 92.5669 110.771 92.259 111.033 92.0054C111.295 91.7519 111.609 91.5588 111.953 91.44C111.953 91.44 113.507 92.045 114.156 91.4188C114.805 90.7925 114.906 90.1875 115.625 89.755C116.106 89.4923 116.655 89.38 117.201 89.4325C117.201 89.4325 117.223 89.9938 115.711 90.8363C114.198 91.6788 114.868 92.7363 114.868 92.7363C114.868 92.7363 114.281 94.62 116.13 94.9863C115.576 94.0238 116.423 92.8425 116.423 92.8425C116.423 92.8425 117.568 93.21 118.281 92.3888C118.993 91.5675 117.62 90.7638 119.012 89.8275C119.167 90.0388 119.361 90.3088 119.533 90.5775C119.901 91.1388 120.783 91.1175 121.283 91.1175C121.705 91.1175 121.986 92.2663 121.746 92.9725C122.323 92.4838 123.053 91.5888 122.58 90.405V90.3975C123.301 89.0225 121.643 88.6275 121.447 88.0963C121.061 87.06 122.5 85.75 123.388 85.375C125.226 84.6063 125.763 84.54 125.763 84.54C125.234 84.2546 124.675 84.0275 124.096 83.8625C124.711 83.4851 125.358 83.1638 126.031 82.9025C121.918 80.4725 125.111 77.19 131.45 79.6825C131.554 78.4632 131.305 77.2396 130.731 76.1588C129.072 74.6063 126.18 73.9088 126.18 73.9088C127.064 73.7976 127.959 73.8212 128.836 73.9788C128.491 73.7197 128.126 73.4889 127.745 73.2888C127.288 73.0475 126.814 72.8411 126.326 72.6713C124.847 72.46 122.558 71.9713 120.343 73.0463C117.206 74.57 116.25 78.2413 116.25 78.2413C117.111 77.5339 118.061 76.941 119.075 76.4775C117.843 77.9713 117.563 80.3313 117.563 80.3313C118.11 79.8411 118.691 79.3903 119.301 78.9825C119.273 79.705 119.313 80.6838 119.653 81.345C120.25 82.5088 120.578 83.1963 120.278 83.7613C117.591 88.8688 117.668 84.2713 115.665 84.0763C114.325 83.9513 113.915 84.8263 113.915 84.8263C113.915 84.8263 111.982 85.1813 112.318 86.7013C112.68 85.8263 114.001 85.9713 114.001 85.9713C114.001 85.9713 114.238 86.945 115.126 86.8788C116.013 86.8125 117.07 87.0938 117.113 87.5688C117.157 88.0438 115.645 89.0588 114.587 88.9438C113.53 88.8288 112.448 88.3825 111.757 88.8363C111.066 89.29 111.173 90.3913 111.173 90.3913C110.874 90.7282 110.653 91.1269 110.526 91.559C110.399 91.9912 110.368 92.446 110.437 92.8913" fill="black"/>
<path d="M149.465 72.6249C147.019 65.7386 139.564 65.8749 136.803 61.7299C135.292 59.4574 134.678 55.9549 135.958 53.0561C137.458 49.6661 142.379 49.6186 142.182 52.4311C142.486 52.0657 142.635 51.5955 142.596 51.1215C142.558 50.6475 142.335 50.2076 141.975 49.8961C146.675 51.1549 145.289 56.1361 143.475 55.8124C142.614 55.6586 142.305 54.0711 143.999 53.6411C140.632 53.0224 140.322 57.7361 143.624 57.7824C143.771 57.7837 143.918 57.7749 144.064 57.7561C143.779 58.1311 143.482 58.5061 143.189 58.8749C141.822 60.6149 141.55 63.0449 143.637 64.4236C142.49 63.3374 142.137 61.2024 143.928 59.6049C143.197 61.3699 143.272 62.9586 143.928 63.8974C145.339 65.8974 148.879 65.6011 149.184 62.3786C146.809 64.2624 144.818 61.8911 146.662 59.2849C146.7 59.5376 146.8 59.777 146.953 59.9822C147.105 60.1874 147.306 60.3523 147.537 60.4624C146.259 58.5486 149.169 54.8949 146.993 51.6111C148.577 51.3236 148.507 48.9324 146.543 49.1324C148.112 49.4499 147.202 51.9424 145.464 50.0074C143.859 48.2199 141.377 47.7999 139.788 48.2986C140.156 47.8499 140.34 47.2779 140.302 46.6986C140.224 45.6499 139.38 44.7886 138.159 45.1111C137.2 45.3611 136.595 46.6111 137.485 47.3124C136.819 45.3761 140.002 45.2561 139.102 47.3124C138.889 47.7961 138.324 48.2599 137.352 49.1324C136.927 49.5083 136.542 49.9272 136.203 50.3824C133.17 53.3286 132.989 59.0411 135.167 62.4999C139.284 69.0349 149.093 65.8811 148.429 79.1511C148.329 81.1511 145.189 81.8311 144.979 78.0261C144.692 72.8049 144.038 69.2761 138.382 68.6511C133.303 68.0861 129.164 65.9224 129.464 58.9186C129.514 57.7686 129.598 56.7124 129.707 55.7474C129.533 55.6234 129.366 55.4908 129.207 55.3499C128.457 54.6901 127.865 53.8703 127.474 52.9511C127.344 53.1486 127.207 53.3395 127.064 53.5236C126.607 59.0936 118.534 58.0236 114.722 60.3586C114.255 61.0795 113.715 61.7498 113.109 62.3586C111.464 63.8674 108.515 64.1749 108.515 64.1749C108.515 64.1749 106.63 63.7999 105.43 64.2099C104.23 64.6199 103.853 65.0674 102.305 64.3474C101.222 63.8474 100.805 64.4011 100.642 64.7799C100.056 64.6733 99.4522 64.7878 98.9465 65.1011C97.9865 65.7524 98.934 67.2261 98.934 67.2261C98.934 67.2261 99.039 66.2524 99.809 66.0786C100.579 65.9049 100.684 66.1649 100.85 66.4736C101.017 66.7824 102.287 66.3486 102.768 66.1361C103.249 65.9236 103.8 65.9249 103.887 66.5311C103.973 67.1374 103.462 67.3036 102.248 67.5311C101.034 67.7586 101.109 68.7936 101.109 68.7936C101.109 68.7936 99.064 69.7036 100.248 71.4936C100.301 71.1281 100.47 70.789 100.728 70.5254C100.987 70.2618 101.323 70.0874 101.688 70.0274C101.688 70.0274 102.383 70.5686 103.075 69.4499C103.768 68.3311 104.875 68.1249 104.992 68.7024C105.108 69.2799 104.105 69.7824 103.565 70.5136C103.025 71.2449 103.257 71.4786 103.257 71.4786C103.257 71.4786 102.409 73.4961 104.305 74.1399C104.197 73.8254 104.153 73.492 104.179 73.1602C104.204 72.8284 104.297 72.5054 104.453 72.2111C104.453 72.2111 105.609 72.3649 105.724 70.9386C105.839 69.5124 106.998 68.9386 107.498 69.2799C107.998 69.6211 107.692 70.2061 107.768 70.8611C107.801 71.0538 107.892 71.2315 108.031 71.3697C108.169 71.5078 108.346 71.5996 108.539 71.6324C108.539 71.6324 108.747 72.7286 107.368 73.3911C108.072 73.3836 108.934 73.2799 109.388 72.8674C109.629 72.6322 109.794 72.3303 109.863 72.0005C109.932 71.6707 109.9 71.328 109.773 71.0161C109.773 71.0161 110.273 70.8624 110.273 69.1649C110.27 68.6848 110.412 68.2151 110.679 67.8164C110.947 67.4178 111.328 67.1085 111.773 66.9286C111.773 66.9286 111.42 67.7224 112.539 69.2861C112.904 67.9661 113.55 66.7409 114.434 65.6949C116.809 62.7261 120.124 61.9524 121.675 64.5036C121.776 63.2966 122.134 62.125 122.724 61.0674C123.176 60.3466 123.782 59.7359 124.5 59.2799C122.859 61.2499 122.539 63.5361 122.25 66.1086C120.72 64.5599 120 62.9474 117.555 64.0711C116.563 64.5661 115.696 65.2799 115.02 66.1586C114.988 66.1974 114.959 66.2349 114.929 66.2736C115.228 66.7531 115.569 67.2053 115.948 67.6249C119.978 72.0611 123.425 69.7036 128.283 72.2736C132.98 74.7586 133.919 79.4236 130.855 83.7261C135.178 83.3636 134.495 87.2911 137.48 88.8111C136.932 91.8036 138.747 92.5974 137.98 95.1699C137.472 96.8811 136.124 98.0911 134.779 96.5161C134.138 95.7661 133.639 94.6824 132.654 94.5874C131.174 94.4449 130.72 95.4224 130.72 95.4224C130.72 95.4224 128.587 95.8149 128.958 97.4949C129.355 96.5311 130.817 96.6874 130.817 96.6874C130.817 96.6874 131.079 97.7611 132.058 97.6874C133.037 97.6136 134.205 97.9261 134.254 98.4511C134.303 98.9761 132.629 100.097 131.46 99.9786C130.292 99.8599 129.098 99.3536 128.335 99.8599C127.573 100.366 127.69 101.577 127.69 101.577C127.359 101.95 127.115 102.391 126.974 102.87C126.833 103.348 126.8 103.851 126.877 104.344C127.019 103.967 127.243 103.626 127.533 103.345C127.822 103.064 128.169 102.85 128.55 102.719C128.55 102.719 130.268 103.387 130.985 102.695C131.703 102.002 131.82 101.334 132.61 100.857C133.142 100.566 133.749 100.441 134.353 100.499C134.353 100.499 134.377 101.124 132.705 102.05C131.034 102.976 131.775 104.151 131.775 104.151C131.775 104.151 131.125 106.231 133.169 106.64C132.557 105.576 133.494 104.265 133.494 104.265C133.494 104.265 134.758 104.67 135.547 103.765C136.335 102.86 134.817 101.97 136.354 100.935C136.525 101.167 136.739 101.466 136.93 101.76C137.337 102.385 138.315 102.356 138.864 102.356C139.33 102.356 139.64 103.625 139.375 104.405C140.014 103.866 140.819 102.875 140.297 101.567V101.56C140.797 100.624 140.263 100.166 139.6 99.5349C138.134 98.1386 141.464 95.8624 143.237 95.9099C142.822 95.5488 142.359 95.2468 141.862 95.0124C143.124 94.0336 143.94 93.9836 143.94 93.9836C143.338 93.6199 142.522 93.3911 141.888 93.0311C139.78 91.8374 141.502 88.5586 144.148 90.1749C143.811 89.4452 143.305 88.806 142.673 88.3099C143.137 88.2184 143.546 87.9492 143.814 87.5599C143.091 87.5614 142.383 87.3496 141.78 86.951C141.176 86.5523 140.704 85.9845 140.422 85.3186C138.644 80.5974 144.749 78.9686 140.328 72.0861C143.543 73.3474 142.964 76.8699 143.338 79.6361C143.917 83.9111 149.265 84.1274 150.134 79.7836C150.549 77.7086 150.325 75.0336 149.472 72.6274" fill="black"/>
<path d="M116.75 57.9449C116.435 57.8396 116.154 57.6508 115.938 57.3986C115.721 57.1463 115.577 56.84 115.521 56.5124C114.948 57.0176 114.322 57.4586 113.653 57.8274C113.191 58.6927 113.008 59.6792 113.129 60.6524C116.396 57.2686 124.254 58.6399 125.988 54.6411C125.197 55.3038 124.239 55.7363 123.219 55.8911L120.763 56.2661L122.109 55.0599C120.186 55.6536 117.036 55.8324 116.75 57.9536" fill="black"/>
<path d="M115.391 37.6686C114.936 37.4186 114.174 37.7224 114.079 38.0249C114.043 38.4332 114.055 38.8441 114.112 39.2499C114.164 39.4082 114.248 39.5538 114.361 39.6767C114.473 39.7996 114.61 39.897 114.764 39.9624C114.792 40.505 114.885 41.0424 115.039 41.5636C115.286 41.0579 115.625 40.6027 116.039 40.2211C116.039 40.2211 117.97 40.0961 118.214 40.0961C118.457 40.0961 119.246 41.7811 119.321 42.0699C119.396 42.3586 115.857 43.4449 115.765 43.3986C115.58 43.2202 115.471 42.9768 115.462 42.7199C115.495 42.376 115.566 42.0369 115.674 41.7086C115.204 41.8951 114.809 42.2306 114.549 42.6636C114.427 42.852 114.348 43.065 114.318 43.2873C114.288 43.5097 114.307 43.7359 114.375 43.9499C114.233 44.2864 114.156 44.6463 114.146 45.0111C114.146 45.5636 116.689 46.9486 116.689 46.9486C116.021 44.8349 118.84 44.0486 119.614 45.1624C120.114 45.8836 120.076 47.3661 118.364 48.1861C116.427 49.1086 114.77 49.5836 114.837 52.3311C115.347 51.5574 115.885 50.9561 117.505 50.4561C116.38 51.1374 114.985 52.5999 114.677 53.9011C114.215 52.7249 114.161 52.1211 114.317 51.2486C112.641 52.4986 114.647 55.7699 110.479 57.4361C112.901 57.9236 114.035 56.9361 115.437 55.4674C115.585 54.0186 116.775 53.3886 118.129 52.6686L118.204 52.6286C118.087 51.7729 118.232 50.902 118.62 50.1302C119.007 49.3583 119.619 48.7217 120.375 48.3036C119.853 48.7859 119.459 49.3906 119.229 50.0632C118.999 50.7358 118.94 51.4551 119.057 52.1561C120.307 51.4474 122.034 50.4349 122.02 49.1174C123.162 53.5611 114.44 52.9274 116.371 56.9549C117.195 54.6299 122.642 55.0536 124.109 53.1561C123.978 53.9081 123.627 54.6042 123.1 55.1561C126.746 54.6074 128.416 50.1974 128.619 46.9411C128.744 48.6736 128.64 50.5424 127.994 52.1686C128.22 52.8824 128.586 53.5443 129.07 54.116C129.554 54.6878 130.146 55.1581 130.812 55.4999C130.812 55.4999 130.305 53.9211 130.906 51.3749C130.221 50.0574 131.616 48.9349 130.804 47.6999C131.659 48.2236 131.391 49.0274 131.304 49.8874C131.171 51.2336 131.962 51.8224 133.206 52.4136C132.981 51.7036 132.341 49.5299 133.005 47.5586C133.044 48.4499 133.071 49.1186 133.255 49.6161C133.896 49.9263 134.605 50.0719 135.317 50.0399C132.957 47.1886 135.279 45.4249 132.587 42.8549C133.282 43.1048 133.913 43.5052 134.435 44.0274C136.115 43.3799 136.367 41.6036 136.367 41.6036C136.367 41.6036 133.742 41.7774 132.732 39.7286C132.191 39.74 131.664 39.5498 131.255 39.1949C132.091 39.4449 133.206 39.3311 133.88 38.7449C133.88 38.7449 132.716 38.5586 131.669 36.3249C131.399 35.7785 131.01 35.2999 130.53 34.9247C130.05 34.5494 129.491 34.2872 128.896 34.1574C129.302 33.7995 129.779 33.5312 130.296 33.3699C130.296 33.3699 128.635 32.4836 125.937 33.0949C126.311 32.5873 126.726 32.1112 127.177 31.6711C127.177 31.6711 125.502 31.3686 124.177 32.2299C123.617 32.6486 123.122 33.1473 122.707 33.7099C121.941 33.981 121.149 34.1774 120.345 34.2961C118.614 34.5386 118.765 35.4649 118.765 35.4649C118.021 35.9653 117.138 36.2178 116.242 36.1861C114.694 36.1561 113.814 37.0674 113.814 37.1736C114.189 37.4924 115.112 36.7811 115.396 37.6736M131.429 46.6736C130.744 46.6598 130.077 46.4551 129.503 46.0825C128.929 45.7099 128.47 45.1843 128.179 44.5649C127.248 45.9499 126.856 47.6273 127.077 49.2811C126.37 48.8664 125.777 48.2806 125.355 47.5774C125.22 49.0549 125.256 50.6261 123.252 51.6061C125.547 49.7186 123.544 47.5299 125.157 44.8486C125.157 46.3299 125.501 46.6974 126.462 47.7511C126.53 46.3199 126.975 45.0374 128.44 43.0011C128.677 44.1049 129.19 45.0174 130.179 45.5286C129.755 43.4661 131.366 41.1411 129.381 38.8649C133.04 41.3936 129.357 44.2074 131.43 46.6686M125.516 34.5574C125.422 34.9751 125.426 35.4087 125.526 35.8249C126.609 35.6136 128.247 35.7386 129.026 36.6449C129.124 37.9936 128.347 38.7099 127.104 39.0111C127.989 42.0724 125.207 42.5786 124.354 44.2549C124.439 42.0486 127.612 41.8111 125.957 38.3011C127.28 38.6161 128.347 37.9836 128.606 36.9736C127.586 36.0686 126.292 36.0624 125.162 36.7736C125.037 36.4031 125.004 36.0074 125.066 35.6211C125.128 35.2349 125.284 34.8697 125.52 34.5574M123.241 39.7499C123.689 40.0567 124.108 40.4049 124.491 40.7899C124.724 40.1461 124.941 38.4149 124.76 37.7899C125.439 39.0849 125.576 40.9361 124.642 42.1911C124.365 41.7936 123.907 41.2711 123.907 41.2711C123.907 41.2711 123.657 43.2711 121.525 44.9874C123.571 42.2674 123.241 39.7499 123.241 39.7499ZM122.467 35.8286L121.546 35.8474C121.546 35.8474 120.954 36.7486 120.644 36.6949C120.132 36.6049 119.482 35.8199 119.091 35.6274C119.841 35.7449 122.012 35.3024 122.466 35.8286" fill="black"/>
<path d="M55.5209 29.6062C58.8446 28.14 66.4959 25.2712 75.2634 25.3562C84.0309 25.2737 91.6821 28.1425 95.0071 29.6062C98.3509 20.3212 100.998 17.555 102.275 16.5337C100.555 16.3025 99.4596 16.745 98.5246 17.5025C98.3315 17.1804 98.0679 16.9063 97.7536 16.7007C97.4393 16.4951 97.0825 16.3634 96.71 16.3156C96.3375 16.2677 95.959 16.3049 95.603 16.4244C95.2469 16.5438 94.9225 16.7424 94.6543 17.0053C94.386 17.2681 94.1808 17.5883 94.0541 17.9418C93.9274 18.2954 93.8824 18.673 93.9226 19.0464C93.9629 19.4198 94.0872 19.7793 94.2863 20.0977C94.4854 20.4161 94.7541 20.6853 95.0721 20.885C90.7471 23.9187 84.1759 20.47 87.0721 14.2887C87.1746 14.3013 87.2777 14.3075 87.3809 14.3075C87.9446 14.3075 88.4916 14.1158 88.9321 13.7639C89.3725 13.412 89.6802 12.9208 89.8046 12.371C89.9291 11.8212 89.8629 11.2453 89.6168 10.7381C89.3708 10.2309 88.9597 9.82234 88.4508 9.57962C87.942 9.33689 87.3658 9.2744 86.8167 9.40239C86.2677 9.53038 85.7785 9.84125 85.4295 10.284C85.0804 10.7267 84.8923 11.2749 84.896 11.8386C84.8996 12.4024 85.0949 12.9481 85.4496 13.3862C85.0478 13.8653 84.589 14.2935 84.0834 14.6612C81.4584 16.5137 76.8071 15.1437 76.8071 11.31V10.3637C77.1328 10.5329 77.4949 10.6199 77.8619 10.617C78.2288 10.6141 78.5895 10.5216 78.9125 10.3473C79.2355 10.1731 79.511 9.92254 79.7149 9.61744C79.9188 9.31235 80.045 8.962 80.0825 8.59694C80.12 8.23188 80.0677 7.86319 79.93 7.52302C79.7923 7.18284 79.5735 6.88149 79.2927 6.64526C79.0119 6.40902 78.6775 6.24506 78.3188 6.16767C77.9601 6.09028 77.5879 6.10181 77.2346 6.20125C77.6871 5.3725 78.1096 4.24625 77.8246 3.23C77.4109 1.7625 75.9059 1.00875 75.2659 0C74.6246 1.00875 73.1159 1.7625 72.7096 3.23C72.4271 4.25 72.8471 5.375 73.2996 6.20125C72.9464 6.10181 72.5742 6.09028 72.2154 6.16767C71.8567 6.24506 71.5224 6.40902 71.2415 6.64526C70.9607 6.88149 70.7419 7.18284 70.6042 7.52302C70.4666 7.86319 70.4142 8.23188 70.4517 8.59694C70.4892 8.962 70.6154 9.31235 70.8193 9.61744C71.0233 9.92254 71.2988 10.1731 71.6217 10.3473C71.9447 10.5216 72.3054 10.6141 72.6724 10.617C73.0394 10.6199 73.4015 10.5329 73.7271 10.3637V11.31C73.7271 15.1437 69.0809 16.5137 66.4521 14.6612C65.9459 14.2941 65.4871 13.8659 65.0859 13.3862C65.4409 12.948 65.6364 12.402 65.6402 11.838C65.644 11.274 65.4559 10.7254 65.1068 10.2824C64.7577 9.8394 64.2683 9.52825 63.719 9.40006C63.1698 9.27187 62.5932 9.33425 62.0841 9.57697C61.575 9.81968 61.1635 10.2283 60.9172 10.7357C60.671 11.2432 60.6045 11.8193 60.7289 12.3694C60.8533 12.9196 61.161 13.4111 61.6015 13.7633C62.0421 14.1154 62.5893 14.3074 63.1534 14.3075C63.2566 14.3075 63.3597 14.3013 63.4621 14.2887C66.3546 20.47 59.7834 23.9137 55.4621 20.885C55.7787 20.6845 56.0458 20.4149 56.2435 20.0966C56.4412 19.7782 56.5643 19.4193 56.6037 19.0466C56.643 18.6739 56.5976 18.2972 56.4707 17.9445C56.3439 17.5919 56.1389 17.2725 55.8712 17.0103C55.6035 16.7481 55.2799 16.5498 54.9247 16.4304C54.5695 16.3109 54.1919 16.2733 53.8201 16.3204C53.4483 16.3675 53.092 16.4981 52.7778 16.7023C52.4637 16.9066 52.1997 17.1793 52.0059 17.5C51.0684 16.7425 49.9734 16.3 48.2559 16.5312C49.5321 17.5525 52.1796 20.3187 55.5234 29.6037M93.0509 22.8925L93.9046 25.4187L91.7621 27.0112L90.9071 24.485L93.0509 22.8925ZM85.7371 20.065L86.7584 23.0775L84.2034 24.9762L83.1834 21.9625L85.7371 20.065ZM75.2621 17.7025L77.5646 20.8675L75.2621 24.0325L72.9596 20.8675L75.2621 17.7025ZM64.7884 20.0675L67.3434 21.965L66.3234 24.9787L63.7684 23.0812L64.7884 20.0675ZM57.4759 22.895L59.6171 24.485L58.7609 27.0112L56.6246 25.4212L57.4759 22.895Z" fill="black"/>
<path d="M102.174 71.1164C101.993 71.1205 101.813 71.096 101.64 71.0439L101.624 71.0514C101.209 76.8427 99.6727 82.2739 95.7677 86.9077C93.2027 89.9502 89.9202 92.3564 86.5764 94.4727C82.9139 96.7902 79.0602 98.8677 75.2639 100.986C71.4677 98.8677 67.6139 96.7902 63.9514 94.4714C60.6077 92.3552 57.3264 89.9489 54.7602 86.9077C50.8552 82.2727 49.3189 76.8414 48.9039 71.0514L48.8877 71.0439C48.7145 71.0954 48.5345 71.1199 48.3539 71.1164C48.3277 71.1164 48.3027 71.1164 48.2789 71.1164C48.296 71.226 48.3006 71.3371 48.2927 71.4477C48.7552 72.9552 48.1564 74.5139 46.5352 75.0639L45.9102 75.2752C48.5877 91.4089 60.2002 96.4189 75.2602 104.946C90.3202 96.4189 101.934 91.4089 104.611 75.2752L103.986 75.0639C102.361 74.5139 101.764 72.9552 102.229 71.449C102.221 71.3384 102.226 71.2272 102.243 71.1177C102.218 71.1177 102.193 71.1177 102.168 71.1177" fill="black"/>
<path d="M89.2335 71.9011C88.5135 72.3686 87.886 72.8061 86.9935 72.2023C86.471 71.8486 86.206 72.3861 86.206 72.7873C86.206 73.4911 85.9272 73.6623 85.271 73.6523C84.7885 73.6423 84.2835 73.9248 84.6047 74.5036C85.0785 75.3561 84.6822 75.9073 84.1735 76.5123C83.6647 77.1173 83.2172 77.8323 83.7322 78.6573C84.1772 79.3723 84.716 80.0223 85.6885 79.9386C86.0822 79.9048 87.4897 78.0223 87.4897 77.5823C87.496 76.0598 88.356 75.2161 89.7797 75.3323C90.1622 75.3648 92.2135 74.2073 92.3672 73.8811C92.4773 73.6405 92.4921 73.3671 92.4085 73.1161C91.9722 71.6161 90.551 71.0411 89.2335 71.8948" fill="black"/>
<path d="M82.6162 68.4502L86.0525 71.4289C85.7487 69.4289 85.07 68.8402 82.6162 68.4502Z" fill="black"/>
<path d="M7.00003 79.6349C7.37503 76.8699 6.79503 73.3474 10.01 72.0862C5.58752 78.9687 11.6925 80.5974 9.91628 85.3174C9.6338 85.9835 9.16118 86.5515 8.55754 86.9504C7.9539 87.3493 7.24604 87.5613 6.52253 87.5599C6.79042 87.9493 7.20002 88.2185 7.66378 88.3099C7.03167 88.8068 6.52622 89.4464 6.18877 90.1762C8.83503 88.5599 10.5563 91.8399 8.44878 93.0337C7.81628 93.3937 6.99878 93.6212 6.39627 93.9849C6.39627 93.9849 7.21252 94.0362 8.47628 95.0149C7.97866 95.2486 7.51591 95.5502 7.10128 95.9112C8.87253 95.8662 12.2038 98.1412 10.7375 99.5362C10.0738 100.161 9.54753 100.624 10.04 101.561V101.569C9.51753 102.876 10.3225 103.867 10.9613 104.406C10.6963 103.626 11.0075 102.356 11.4725 102.356C12.0225 102.356 13 102.381 13.4063 101.76C13.5975 101.467 13.8113 101.169 13.9825 100.935C15.52 101.971 14.0113 102.869 14.79 103.766C15.5688 104.664 16.8438 104.266 16.8438 104.266C16.8438 104.266 17.78 105.572 17.1688 106.641C19.2113 106.234 18.5625 104.154 18.5625 104.154C18.5625 104.154 19.3025 102.984 17.6313 102.052C15.96 101.121 15.9763 100.5 15.9763 100.5C16.5794 100.442 17.186 100.567 17.7175 100.857C18.505 101.335 18.625 102.004 19.3425 102.696C20.06 103.389 21.7775 102.72 21.7775 102.72C22.1586 102.852 22.506 103.065 22.7953 103.346C23.0845 103.627 23.3085 103.968 23.4513 104.345C23.5282 103.852 23.495 103.349 23.3541 102.87C23.2132 102.392 22.968 101.951 22.6363 101.579C22.6363 101.579 22.7613 100.361 21.9925 99.8599C21.2238 99.3587 20.035 99.8599 18.8675 99.9849C17.7 100.11 16.0275 98.9849 16.0738 98.4562C16.12 97.9274 17.2913 97.6212 18.2713 97.6924C19.2513 97.7637 19.5125 96.6924 19.5125 96.6924C19.5125 96.6924 20.9738 96.5362 21.3713 97.4999C21.7463 95.8199 19.6088 95.4287 19.6088 95.4287C19.6088 95.4287 19.1538 94.4499 17.675 94.5924C16.6938 94.6874 16.195 95.7687 15.55 96.5212C14.2063 98.0962 12.8588 96.8874 12.3475 95.1749C11.5825 92.6012 13.3975 91.8087 12.8475 88.8174C15.835 87.2974 15.1513 83.3687 19.4725 83.7324C16.4075 79.4299 17.3475 74.7649 22.0438 72.2799C26.9025 69.7099 30.3488 72.0674 34.3788 67.6312C34.7573 67.2134 35.0986 66.7633 35.3988 66.2862L35.3088 66.1712C34.6323 65.292 33.7651 64.5778 32.7725 64.0824C30.3313 62.9574 29.6075 64.5724 28.0775 66.1212C27.7863 63.5474 27.4663 61.2624 25.8275 59.2924C26.544 59.749 27.1492 60.3602 27.5988 61.0812C28.19 62.1389 28.5476 63.3111 28.6475 64.5187C30.1988 61.9662 33.5075 62.7399 35.8888 65.7074C36.7729 66.7537 37.4195 67.9794 37.7838 69.2999C38.9025 67.7362 38.55 66.9424 38.55 66.9424C38.9948 67.1223 39.3755 67.4314 39.6429 67.8298C39.9102 68.2282 40.0521 68.6976 40.05 69.1774C40.05 70.8749 40.55 71.0299 40.55 71.0299C40.4253 71.3419 40.3963 71.684 40.4666 72.0126C40.5369 72.3411 40.7035 72.6413 40.945 72.8749C41.3988 73.2887 42.26 73.3924 42.9638 73.3987C41.5888 72.7399 41.7925 71.6412 41.7925 71.6412C41.9852 71.608 42.1629 71.5159 42.301 71.3775C42.4391 71.2392 42.5309 71.0614 42.5638 70.8687C42.6413 70.2137 42.3325 69.6349 42.8338 69.2887C43.335 68.9424 44.4913 69.5199 44.6075 70.9462C44.7238 72.3724 45.875 72.2137 45.875 72.2137C46.0304 72.5079 46.1236 72.831 46.149 73.1627C46.1744 73.4945 46.1313 73.8279 46.0225 74.1424C47.92 73.4987 47.07 71.4812 47.07 71.4812C47.07 71.4812 47.3013 71.2499 46.7625 70.5174C46.2238 69.7849 45.2188 69.2837 45.335 68.7049C45.4513 68.1262 46.53 68.3199 47.225 69.4374C47.92 70.5549 48.6125 70.0162 48.6125 70.0162C48.977 70.0759 49.3129 70.2501 49.5718 70.5135C49.8307 70.7768 49.9991 71.1158 50.0525 71.4812C51.2363 69.6924 49.1913 68.7812 49.1913 68.7812C49.1913 68.7812 49.2675 67.7499 48.0538 67.5187C46.84 67.2874 46.3275 67.1237 46.4138 66.5187C46.5 65.9137 47.05 65.9124 47.5325 66.1237C48.015 66.3349 49.2825 66.7699 49.45 66.4612C49.6175 66.1524 49.72 65.8924 50.4913 66.0662C51.2625 66.2399 51.3663 67.2137 51.3663 67.2137C51.3663 67.2137 52.3138 65.7437 51.3538 65.0887C50.8481 64.7753 50.2441 64.6608 49.6588 64.7674C49.5013 64.3924 49.0788 63.8287 47.995 64.3349C46.4525 65.0549 46.075 64.6087 44.87 64.1974C43.665 63.7862 41.785 64.1624 41.785 64.1624C41.785 64.1624 38.8363 63.8549 37.1913 62.3462C36.5858 61.7373 36.0454 61.067 35.5788 60.3462C31.7788 57.9999 23.705 59.0762 23.25 53.5062C23.1075 53.3224 22.97 53.1312 22.8413 52.9337C22.4508 53.8529 21.8587 54.6727 21.1088 55.3324C20.96 55.4574 20.7875 55.5999 20.6088 55.7299C20.7175 56.6962 20.8025 57.7512 20.8513 58.8999C21.1513 65.8999 17.0138 68.0687 11.935 68.6324C6.28003 69.2574 5.62502 72.7899 5.33627 78.0074C5.12627 81.8174 1.98752 81.1399 1.88627 79.1324C1.21877 65.8749 11.0263 69.0249 15.145 62.4899C17.3238 59.0312 17.145 53.3187 14.1088 50.3712C13.7696 49.9163 13.3847 49.4974 12.96 49.1212C11.9875 48.2462 11.4225 47.7862 11.21 47.3012C10.3088 45.2499 13.4925 45.3699 12.8263 47.3012C13.7163 46.5962 13.1113 45.3537 12.1513 45.0999C10.9313 44.7774 10.0875 45.6387 10.01 46.6874C9.97217 47.2668 10.1553 47.839 10.5225 48.2887C8.93503 47.7887 6.45127 48.2099 4.84752 49.9974C3.11002 51.9349 2.19877 49.4424 3.76877 49.1224C1.80502 48.9237 1.73377 51.3149 3.31752 51.6024C1.14252 54.8849 4.05252 58.5387 2.77502 60.4537C3.00534 60.3429 3.20531 60.1779 3.35773 59.9728C3.51015 59.7677 3.61046 59.5286 3.65002 59.2762C5.50002 61.8899 3.50002 64.2624 1.12502 62.3749C1.43002 65.5974 4.97002 65.8937 6.37502 63.8937C7.03753 62.9549 7.11253 61.3662 6.37502 59.6024C8.16503 61.1987 7.81253 63.3337 6.66628 64.4212C8.76628 63.0424 8.50003 60.6137 7.12503 58.8749C6.83628 58.5074 6.53877 58.1362 6.25002 57.7562C6.39586 57.7756 6.54292 57.7843 6.69003 57.7824C9.99878 57.7362 9.69003 53.0224 6.32127 53.6424C8.01378 54.0712 7.70628 55.6587 6.84503 55.8137C5.03252 56.1374 3.64627 51.1549 8.34503 49.8962C7.98561 50.2076 7.76268 50.6475 7.72412 51.1215C7.68555 51.5955 7.83443 52.0657 8.13878 52.4312C7.95003 49.6249 12.875 49.6687 14.375 53.0587C15.655 55.9562 15.04 59.4612 13.5275 61.7324C10.765 65.8812 3.31002 65.7399 0.865023 72.6249C0.0112721 75.0274 -0.212478 77.7074 0.202522 79.7812C1.07002 84.1249 6.42003 83.9062 6.99878 79.6337" fill="black"/>
<path d="M15.8883 44.0276C16.4111 43.5065 17.0417 43.1063 17.7358 42.8551C15.0458 45.4264 17.3671 47.1901 15.0058 50.0401C15.7179 50.073 16.4269 49.9274 17.0683 49.6164C17.2508 49.1164 17.2771 48.4501 17.3183 47.5589C17.9858 49.5314 17.3471 51.7064 17.1221 52.4139C18.3646 51.8226 19.1558 51.2339 19.0233 49.8876C18.9383 49.0289 18.6696 48.2251 19.5233 47.7001C18.7121 48.9351 20.1071 50.0564 19.4208 51.3751C20.0233 53.9276 19.5158 55.5064 19.5158 55.5064C20.1818 55.1629 20.7733 54.691 21.2562 54.118C21.7391 53.545 22.1039 52.8822 22.3296 52.1676C21.6808 50.5426 21.5721 48.6676 21.7046 46.9414C21.9071 50.1914 23.5796 54.6076 27.2233 55.1564C26.6962 54.6045 26.3451 53.9083 26.2146 53.1564C27.6808 55.0539 33.1283 54.6301 33.9533 56.9526C35.8858 52.9251 27.1621 53.5589 28.3033 49.1151C28.2896 50.4326 30.0221 51.4451 31.2671 52.1551C31.3845 51.4538 31.3254 50.7342 31.0952 50.0614C30.865 49.3886 30.4708 48.7837 29.9483 48.3014C30.7047 48.7186 31.3173 49.3548 31.7057 50.1264C32.0941 50.898 32.2401 51.769 32.1246 52.6251L32.1996 52.6651C33.5546 53.3851 34.7446 54.0151 34.8908 55.4626C36.2933 56.9314 37.4283 57.9201 39.8496 57.4326C35.6833 55.7676 37.6908 52.5001 36.0133 51.2501C36.1696 52.1251 36.1158 52.7239 35.6546 53.9014C35.3471 52.6014 33.9496 51.1389 32.8271 50.4564C34.4521 50.9564 34.9846 51.5601 35.4946 52.3314C35.5608 49.5814 33.9058 49.1101 31.9683 48.1864C30.2521 47.3676 30.2108 45.8839 30.7183 45.1626C31.4921 44.0489 34.3096 44.8351 33.6433 46.9489C33.6433 46.9489 36.1858 45.5639 36.1858 45.0126C36.176 44.6473 36.0985 44.2871 35.9571 43.9501C36.0251 43.7353 36.0447 43.5081 36.0144 43.2849C35.9842 43.0616 35.9048 42.8478 35.7821 42.6589C35.5219 42.2258 35.1266 41.8903 34.6571 41.7039C34.7641 42.0322 34.835 42.3713 34.8683 42.7151C34.8584 42.9718 34.7501 43.2149 34.5658 43.3939C34.4733 43.4401 30.9333 42.3539 31.0096 42.0651C31.0858 41.7764 31.8746 40.0914 32.1171 40.0914C32.3596 40.0914 34.2921 40.2164 34.2921 40.2164C34.7053 40.5984 35.0443 41.0536 35.2921 41.5589C35.4461 41.0378 35.538 40.5003 35.5658 39.9576C35.7194 39.8928 35.8573 39.7956 35.9699 39.6726C36.0825 39.5496 36.1672 39.4038 36.2183 39.2451C36.2756 38.8397 36.2861 38.4291 36.2496 38.0214C36.1558 37.7176 35.3933 37.4201 34.9371 37.6639C35.2221 36.7764 36.1433 37.4864 36.5208 37.1639C36.5208 37.0576 35.6458 36.1451 34.0921 36.1776C33.1958 36.2077 32.3129 35.9549 31.5683 35.4551C31.5683 35.4551 31.7196 34.5289 29.9896 34.2864C29.185 34.1678 28.3938 33.9714 27.6271 33.7001C27.2117 33.1375 26.716 32.6388 26.1558 32.2201C24.8296 31.3589 23.1558 31.6614 23.1558 31.6614C23.6072 32.1014 24.0219 32.5776 24.3958 33.0851C21.6983 32.4739 20.0371 33.3601 20.0371 33.3601C20.5535 33.5214 21.0301 33.7898 21.4358 34.1476C20.8409 34.2778 20.2829 34.5403 19.8031 34.9155C19.3234 35.2907 18.9343 35.7691 18.6646 36.3151C17.6171 38.5501 16.4533 38.7351 16.4533 38.7351C17.1246 39.3214 18.2396 39.4351 19.0783 39.1851C18.6685 39.54 18.1416 39.7302 17.5996 39.7189C16.5833 41.7714 13.9658 41.5939 13.9658 41.5939C13.9658 41.5939 14.2158 43.3689 15.8971 44.0164M27.8683 35.8139C28.3246 35.2876 30.4933 35.7301 31.2433 35.6126C30.8521 35.8014 30.2021 36.5901 29.6908 36.6801C29.3808 36.7351 28.7883 35.8326 28.7883 35.8326L27.8658 35.8139H27.8683ZM25.8508 40.7714C26.2347 40.3871 26.6531 40.0389 27.1008 39.7314C27.1008 39.7314 26.7708 42.2539 28.8221 44.9739C26.6908 43.2514 26.4408 41.2564 26.4408 41.2564C26.4408 41.2564 25.9833 41.7789 25.7058 42.1764C24.7721 40.9264 24.9096 39.0689 25.5883 37.7751C25.4071 38.4001 25.6246 40.1289 25.8558 40.7751M21.3183 36.6401C22.0996 35.7339 23.7383 35.6089 24.8183 35.8189C24.9173 35.403 24.9207 34.97 24.8283 34.5526C25.0638 34.8648 25.2194 35.2298 25.2815 35.6159C25.3436 36.0019 25.3103 36.3974 25.1846 36.7676C24.0596 36.0576 22.7621 36.0639 21.7421 36.9689C21.9996 37.9789 23.0683 38.6114 24.3896 38.2951C22.7346 41.8064 25.9083 42.0451 25.9933 44.2501C25.1333 42.5739 22.3521 42.0664 23.2371 39.0001C21.9933 38.7001 21.2171 37.9851 21.3146 36.6351M20.9608 38.8551C18.9771 41.1301 20.5858 43.4564 20.1646 45.5189C21.1508 45.0064 21.6646 44.0939 21.9033 42.9901C23.3683 45.0214 23.8146 46.3051 23.8808 47.7401C24.8421 46.6864 25.1896 46.3176 25.1858 44.8364C26.7983 47.5189 24.7946 49.7114 27.0896 51.5951C25.0896 50.6139 25.1258 49.0414 24.9896 47.5651C24.5668 48.268 23.9746 48.8538 23.2671 49.2689C23.4882 47.6145 23.0961 45.9364 22.1646 44.5514C21.8733 45.1709 21.4147 45.6967 20.8404 46.0693C20.2661 46.442 19.599 46.6466 18.9146 46.6601C20.9858 44.2001 17.3046 41.3851 20.9621 38.8576" fill="black"/>
<path d="M39.1547 90.4089C39.1547 90.4089 39.2635 89.3064 38.571 88.8527C37.8785 88.3989 36.801 88.8527 35.7422 88.9614C34.6835 89.0702 33.1722 88.0539 33.2147 87.5802C33.2572 87.1064 34.3172 86.8302 35.2022 86.8889C36.0872 86.9477 36.3272 85.9827 36.3272 85.9827C36.3272 85.9827 37.6497 85.8414 38.0097 86.7127C38.346 85.1939 36.4147 84.8377 36.4147 84.8377C36.4147 84.8377 36.0035 83.9527 34.6647 84.0814C32.6647 84.2764 32.7385 88.8739 30.051 83.7664C29.7522 83.1989 30.0797 82.5164 30.676 81.3489C31.0147 80.6877 31.051 79.7102 31.0272 78.9877C31.6385 79.3939 32.2196 79.8438 32.766 80.3339C32.766 80.3339 32.4847 77.9752 31.2497 76.4802C32.2655 76.9455 33.2167 77.5405 34.0797 78.2502C34.0797 78.2502 33.1247 74.5727 29.9897 73.0502C27.7747 71.9739 25.4897 72.4639 24.006 72.6752C23.5195 72.8483 23.0466 73.0572 22.591 73.3002C22.2094 73.5006 21.8444 73.7314 21.4997 73.9902C22.3765 73.8326 23.2721 73.809 24.156 73.9202C24.156 73.9202 21.2635 74.6177 19.6047 76.1702C19.0298 77.2502 18.7797 78.4736 18.8847 79.6927C25.2247 77.2002 28.416 80.4827 24.3047 82.9127C24.9768 83.1739 25.624 83.4952 26.2385 83.8727C25.6599 84.0378 25.1008 84.265 24.571 84.5502C24.571 84.5502 25.1047 84.6164 26.946 85.3852C27.8385 85.7602 29.2735 87.0689 28.8897 88.1052C28.6935 88.6364 27.036 89.0364 27.7572 90.4077C27.2835 91.5914 28.0072 92.4877 28.5897 92.9752C28.3497 92.2689 28.631 91.1202 29.0522 91.1202C29.5522 91.1202 30.4272 91.1427 30.8022 90.5802C30.976 90.3152 31.1685 90.0452 31.3235 89.8302C32.716 90.7677 31.3497 91.5802 32.0547 92.3914C32.7597 93.2027 33.9122 92.8452 33.9122 92.8452C33.9122 92.8452 34.7597 94.0264 34.206 94.9889C36.056 94.6139 35.4672 92.7389 35.4672 92.7389C35.4672 92.7389 36.1372 91.6814 34.6247 90.8389C33.1122 89.9964 33.1247 89.4364 33.1247 89.4364C33.6707 89.3837 34.2199 89.4965 34.701 89.7602C35.4147 90.1914 35.5222 90.7952 36.171 91.4239C36.8197 92.0527 38.3735 91.4452 38.3735 91.4452C38.7178 91.5638 39.0318 91.7566 39.2934 92.01C39.555 92.2633 39.7577 92.5711 39.8872 92.9114C39.9567 92.4662 39.9267 92.0111 39.7994 91.5788C39.6721 91.1466 39.4507 90.7479 39.151 90.4114" fill="black"/>
<path d="M35.6416 49.7936C35.7235 49.9242 35.7969 50.0599 35.8616 50.1998L36.4629 50.6498C36.7052 50.8301 36.911 51.055 37.0691 51.3123C37.6291 52.2186 37.5454 53.3661 37.8066 54.3711C38.1329 55.6211 38.9554 56.2711 40.1329 56.7461L40.7216 56.9823C40.6292 56.8218 40.5225 56.67 40.4029 56.5286C40.9602 56.2173 41.461 55.8142 41.8841 55.3361C41.8841 55.3361 40.0004 55.9048 40.0004 53.8461C40.0004 51.9711 42.0879 49.7986 43.9391 49.5673C43.6208 49.3284 43.2839 49.1152 42.9316 48.9298C43.3066 48.2511 43.9316 47.1798 44.2541 47.0936C44.4441 47.0386 44.8604 47.1786 45.3329 47.3248V63.2498L45.3979 63.2723C46.5229 63.6586 46.6354 63.9861 47.7916 63.4473C48.1039 63.2982 48.4397 63.2048 48.7841 63.1711V37.4211C58.4479 38.8023 66.7991 37.1148 75.2691 31.8436C83.7379 37.1148 92.0916 38.8023 101.754 37.4211V63.1711C102.099 63.2049 102.435 63.2988 102.747 63.4486C103.902 63.9873 104.013 63.6586 105.139 63.2723L105.205 63.2511V47.2623C105.595 47.1373 105.925 47.0448 106.089 47.0923C106.408 47.1836 107.039 48.2486 107.412 48.9286C107.059 49.1132 106.722 49.326 106.404 49.5648C108.254 49.7948 110.343 51.9723 110.343 53.8436C110.343 55.9036 108.453 55.3298 108.453 55.3298C108.876 55.8079 109.377 56.2111 109.934 56.5223C109.814 56.663 109.707 56.8145 109.615 56.9748L110.204 56.7398C111.382 56.2686 112.204 55.6248 112.53 54.3648C112.792 53.3648 112.708 52.2136 113.268 51.3061C113.426 51.049 113.632 50.8242 113.874 50.6436L114.475 50.1948C114.54 50.0546 114.613 49.9189 114.695 49.7886C111.727 48.5473 108.982 45.6636 108.018 44.0123C108.08 42.6373 107.715 41.0761 107.407 39.9636C107.032 38.5998 107.329 35.2911 105.205 35.5598V33.2723C93.4116 35.8973 84.4554 34.0086 75.2691 27.7148C66.0779 34.0123 57.1254 35.9048 45.3266 33.2761V35.4998C45.2879 35.5248 45.2491 35.5486 45.2129 35.5773C42.9979 35.2111 43.3141 38.5923 42.9304 39.9736C42.6216 41.0861 42.2566 42.6498 42.3191 44.0223C41.3541 45.6711 38.6104 48.5561 35.6416 49.7973" fill="black"/>
<path d="M24.3448 54.6398C26.0848 58.6398 33.9361 57.2648 37.2036 60.6523C37.3237 59.6793 37.1413 58.693 36.6811 57.8273C36.0099 57.4588 35.3812 57.0179 34.8061 56.5123C34.7501 56.84 34.6062 57.1462 34.3898 57.3985C34.1734 57.6508 33.8926 57.8396 33.5773 57.9448C33.2923 55.8198 30.1411 55.6448 28.2198 55.0511L29.5661 56.2573L27.1086 55.8823C26.0888 55.7266 25.1311 55.2943 24.3398 54.6323" fill="black"/>
<path d="M98.4261 64.2826C98.664 64.12 98.9248 63.9936 99.1998 63.9076V40.2751C90.5748 40.9914 82.8673 39.2301 75.2648 34.8188C67.6623 39.2301 59.9586 40.9901 51.3311 40.2751V63.9101C51.6057 63.9961 51.8661 64.1225 52.1036 64.2851C53.3123 65.1038 53.0773 66.6763 52.3861 67.7401L51.3648 69.3126V69.3888C51.6269 69.9503 51.6641 70.5909 51.4686 71.1788C51.8723 76.3038 53.2423 81.1526 56.7098 85.2676C59.0986 88.1013 62.1998 90.3476 65.3148 92.3201C68.5498 94.3676 71.9123 96.2101 75.2611 98.0701C78.6098 96.2113 81.9723 94.3676 85.2098 92.3201C88.3236 90.3488 91.4248 88.1013 93.8148 85.2676C97.2811 81.1526 98.6498 76.3063 99.0561 71.1788C98.8613 70.5912 98.8984 69.9513 99.1598 69.3901V69.3151L98.1373 67.7413C97.4461 66.6776 97.2111 65.1038 98.4198 64.2863M84.9186 47.5163C86.3461 46.1976 88.0273 45.2663 89.7698 44.3776C89.1448 46.2076 88.4398 47.9613 87.3573 49.5313C86.9523 50.1188 86.4598 50.2901 86.1161 49.4926C86.0389 49.2884 85.9113 49.1071 85.7452 48.9654C85.5791 48.8238 85.3799 48.7265 85.1661 48.6826C84.4761 48.4813 84.3923 48.0001 84.9161 47.5151M59.1661 75.6701C58.2911 75.9888 57.4011 76.2463 56.3723 76.5776C56.5537 76.1248 56.9037 75.7601 57.3486 75.5601C58.6461 75.1701 59.9436 74.7763 61.2436 74.3938C61.4436 74.3351 61.6848 73.9988 61.8686 74.4301C61.1673 75.2726 60.0986 75.3276 59.1698 75.6701M60.3186 72.6826C60.6453 72.1987 61.0948 71.8105 61.6211 71.5576L65.2586 70.5001C63.9398 71.9663 62.0461 72.1251 60.3223 72.6788M63.9086 81.0938C64.4911 79.0076 64.2836 76.9938 65.4248 75.2851C65.6973 75.2188 65.7573 75.3976 65.7186 75.5901C65.4211 77.0751 65.2423 78.5901 64.7836 80.0351C64.6961 80.4101 64.4811 80.6938 63.9086 81.0938ZM68.2186 90.0938L66.8973 89.3351L65.5223 89.9926L65.8361 88.5001L64.7848 87.3976L66.2998 87.2338L67.0248 85.8938L67.6498 87.2838L69.1498 87.5588L68.0248 88.5813L68.2186 90.0938ZM66.9998 76.3063C67.4398 75.3538 67.4648 74.3163 67.6136 73.3063C67.5423 72.6301 67.9073 72.1976 68.6361 71.6626C68.1061 73.3938 68.3061 75.0626 67.3461 76.4551C67.0611 76.8676 66.8986 76.8738 66.9998 76.3088V76.3063ZM77.0523 93.7363L75.2373 92.8538L73.4873 93.8538L73.7661 91.8538L72.2773 90.4913L74.2648 90.1376L75.0998 88.3013L76.0498 90.0826L78.0498 90.3088L76.6498 91.7626L77.0523 93.7363ZM84.5811 88.7776L84.8136 90.2776L83.4773 89.5451L82.1123 90.2376L82.3961 88.7376L81.3236 87.6551L82.8348 87.4626L83.5323 86.1076L84.1836 87.4826L85.6836 87.7326L84.5811 88.7776ZM91.6136 76.0588C91.3061 76.2101 91.2836 76.2476 91.3498 76.5751C91.7686 78.6351 90.7161 79.6213 88.6136 79.1188C88.2498 79.0326 88.1986 79.1426 88.0311 79.3776C87.6441 79.9607 87.0791 80.4033 86.4204 80.6395C85.7616 80.8758 85.0442 80.8931 84.3748 80.6888C83.7079 80.4688 83.1268 80.045 82.7135 79.4772C82.3002 78.9094 82.0755 78.2261 82.0711 77.5238C82.0423 76.5876 82.2211 75.6363 82.8311 74.9763C83.6148 74.1288 83.2323 73.8676 82.4636 73.4413C82.049 73.211 81.6932 72.8882 81.4237 72.498C81.1542 72.1077 80.9784 71.6606 80.9098 71.1913C80.7987 70.5605 80.6437 69.9382 80.4461 69.3288C80.3086 68.9038 80.1736 68.3126 79.8536 68.1401C77.8336 67.0538 77.5148 64.5726 75.7286 63.2651C75.0061 62.7363 74.7811 62.4301 74.0798 63.2838C70.7498 67.3338 67.3298 71.3138 63.9486 75.3188C63.8629 75.443 63.764 75.5574 63.6536 75.6601C63.4236 75.8313 63.3348 76.3713 62.8798 76.0026C62.4248 75.6338 62.9586 75.4451 63.0511 75.1763C63.1361 74.4376 63.7386 74.0388 64.1561 73.5263C65.1723 72.2763 66.2336 71.0601 67.2623 69.8201C67.5163 69.4906 67.8472 69.2283 68.2261 69.0563C70.1069 66.8447 71.9902 64.6343 73.8761 62.4251C74.1686 62.0838 74.3761 61.8438 73.9523 61.4026C72.2386 59.6026 70.5648 57.7651 68.8523 55.9163C68.2873 56.4388 64.6461 60.4463 64.0961 59.8476C63.7373 59.4576 62.0961 57.9813 61.8261 57.2651C61.7011 56.8176 62.9136 56.7213 62.9723 55.9176C63.2361 55.5913 63.4636 55.6838 63.7061 55.9588C63.8636 56.1351 64.0148 56.4476 64.3311 56.1513C64.6248 55.8713 64.3898 55.6788 64.2061 55.5026C63.9261 55.2426 63.9086 55.0213 64.2223 54.7688C64.4186 54.6126 64.6898 54.4201 64.3998 54.1326C64.1748 53.9063 63.9861 54.0863 63.8373 54.2638C63.5536 54.6013 63.3036 54.6001 63.0348 54.2388C62.8861 54.0413 62.7223 53.7763 62.4098 54.0738C62.1598 54.3113 62.3548 54.4488 62.4823 54.6388C63.2836 55.8001 61.8448 55.7738 61.5286 56.3401C61.1623 56.9913 60.8623 56.3213 60.6248 56.0801C59.6061 55.0451 59.8898 55.4388 61.1248 54.2426C61.4811 53.9001 61.9998 52.9251 61.8048 52.7951C61.2398 52.4263 60.9961 53.2701 60.5673 53.5451C60.2545 53.7574 59.9741 54.0138 59.7348 54.3063C59.3598 54.7413 59.1336 54.4888 58.8436 54.1938C58.5536 53.8988 58.4686 53.6826 58.8436 53.3913C59.1723 53.1413 59.4573 52.8338 59.7611 52.5513C59.8353 52.5043 59.8879 52.4298 59.9076 52.3442C59.9272 52.2585 59.9123 52.1686 59.8661 52.0938C59.8386 52.0497 59.8008 52.0128 59.7561 51.9863C59.5611 51.8101 59.4248 51.9151 59.2798 52.0488C59.0689 52.2085 58.8746 52.389 58.6998 52.5876C58.1548 53.3488 57.7686 53.0713 57.2536 52.5038C56.8098 52.0138 56.9836 51.7813 57.3698 51.4326C58.6761 50.2526 59.9598 49.0476 61.2073 47.8926C61.1398 47.5588 60.9573 47.6351 60.8236 47.6101C60.0223 47.4613 59.6136 46.9626 59.7173 46.1763C59.7388 45.8701 59.8809 45.5849 60.1124 45.3834C60.344 45.1818 60.646 45.0804 60.9523 45.1013H60.9673C61.7736 45.1238 62.2111 45.6013 62.2011 46.4126C62.1945 46.5599 62.2191 46.707 62.2731 46.8441C62.3272 46.9813 62.4095 47.1056 62.5148 47.2088C66.7186 51.7451 70.9148 56.2888 75.1636 60.8838C78.2311 57.2588 81.2411 53.6851 84.2886 50.1338C84.5761 49.7988 84.8273 48.9313 85.3986 49.4101C85.8986 49.8288 85.1373 50.2363 84.8623 50.5651C82.0323 53.9526 79.1973 57.3351 76.3061 60.6688C75.7461 61.3151 75.7911 61.6576 76.3736 62.2026C77.1411 62.9226 77.8123 63.7463 78.5386 64.5138C78.9136 64.9138 79.2336 65.4051 79.9473 65.2288C80.3586 65.1276 80.6023 65.5088 80.6111 65.8438C80.6398 66.9338 81.4361 67.3001 82.2361 67.6451C82.8292 67.8878 83.4381 68.0899 84.0586 68.2501C85.5148 68.6526 86.2236 69.7588 86.7136 71.1101C87.2085 70.6833 87.7851 70.3617 88.4083 70.1648C89.0315 69.968 89.6883 69.9 90.3386 69.9651C91.0376 70.0328 91.6972 70.32 92.223 70.7854C92.7489 71.2509 93.114 71.8708 93.2661 72.5563C93.41 73.241 93.3256 73.9539 93.0258 74.5861C92.726 75.2182 92.2273 75.7346 91.6061 76.0563" fill="black"/>
<path d="M46.0238 133.125C44.6825 133.178 43.2738 133 42.4575 132.773C41.61 132.543 39.4913 131.554 36.225 129.241C34.6538 129.188 32.27 128.588 30.54 127.016C29.6657 126.226 28.9659 125.262 28.4855 124.186C28.005 123.109 27.7545 121.945 27.75 120.766C27.75 115.945 31.25 111.708 37.1075 111.708C41.7325 111.708 45.865 115.151 45.865 120.343C45.865 124.88 42.865 127.881 39.6675 128.835C41.24 129.859 43.7113 131.413 46.2363 132.543L46.0238 133.125ZM38.0238 127.634C38.2838 127.772 38.5317 127.932 38.765 128.111C40.8313 127.546 42.9675 125.268 42.9675 121.066C42.9675 115.751 40.0925 112.679 36.435 112.679C33.415 112.679 30.6438 115.258 30.6438 120.054C30.6438 124.414 32.9563 127.575 36.1163 128.21L38.0238 127.634Z" fill="black"/>
<path d="M65.97 112.875C64.4337 112.963 63.7625 113.351 63.6562 114.411C63.5862 115.135 63.4975 116.176 63.4975 118.508V120.538C63.4975 123.593 62.9975 125.834 61.4675 127.424C60.2312 128.674 58.43 129.243 56.6112 129.243C54.9862 129.243 53.4512 128.889 52.2687 127.993C50.6437 126.791 49.8675 124.831 49.8675 121.724V115.561C49.8675 113.178 49.6375 113.054 47.5537 112.878V112.1H54.6337V112.875C52.5687 113 52.3387 113.158 52.3387 115.559V121.191C52.3387 125.441 54.1225 127.776 57.3387 127.776C61.0825 127.776 62.3712 124.776 62.3712 120.485V118.51C62.3712 116.179 62.3012 115.155 62.16 114.343C62.0187 113.354 61.4175 113.001 59.5987 112.878V112.1H65.9737L65.97 112.875Z" fill="black"/>
<path d="M83.2361 129.125C82.9237 129.125 82.6115 129.107 82.3011 129.071C80.1649 128.966 79.0699 128.401 77.8511 126.706C76.9511 125.456 76.0861 123.881 75.2911 122.645C74.8149 121.904 74.3548 121.585 72.9961 121.585H72.2499V125.611C72.2499 127.783 72.4998 127.978 74.6148 128.154V128.895H67.4648V128.154C69.6011 127.978 69.8486 127.779 69.8486 125.611V115.366C69.8486 113.16 69.6186 113.019 67.5698 112.878V112.1H74.3323C76.3323 112.1 77.6174 112.33 78.6236 113.001C79.6999 113.671 80.3736 114.819 80.3736 116.391C80.3736 118.633 78.9261 119.975 77.0374 120.766C77.4999 121.618 78.5749 123.313 79.3749 124.5C80.3286 125.86 80.8936 126.584 81.5111 127.219C82.1824 127.979 82.7611 128.261 83.3649 128.403L83.2361 129.125ZM73.4374 120.716C74.7611 120.716 75.6449 120.505 76.3124 119.975C77.3199 119.198 77.7249 118.191 77.7249 116.796C77.7249 114.025 75.9074 113.001 73.9474 113.001C73.1524 113.001 72.7286 113.106 72.5349 113.251C72.3411 113.396 72.2524 113.693 72.2524 114.364V120.72L73.4374 120.716Z" fill="black"/>
<path d="M94.68 128.891V128.15C96.3225 127.92 96.555 127.691 96.1987 126.65C95.8237 125.626 95.3512 124.337 94.7862 122.854H89.125C88.6837 124.037 88.33 125.044 88 126.067C87.435 127.639 87.6462 127.942 89.6412 128.151V128.892H83.8037V128.151C85.5162 127.886 85.8875 127.71 86.8225 125.414L92.3675 111.942L93.285 111.712C94.98 116.286 96.675 120.876 98.4237 125.414C99.2712 127.692 99.6412 127.975 101.354 128.151V128.892L94.68 128.891ZM92.085 115.266H92.0312C91.1837 117.402 90.355 119.609 89.56 121.692H94.3975L92.085 115.266Z" fill="black"/>
<path d="M102.855 128.891V128.15C105.009 127.991 105.238 127.833 105.238 125.608V115.42C105.238 113.178 105.009 113.019 102.855 112.878V112.1H110.059V112.875C107.922 113.016 107.693 113.175 107.693 115.418V125.605C107.693 127.83 107.922 127.989 110.059 128.148V128.889L102.855 128.891Z" fill="black"/>
<path d="M121.27 116.144C120.811 114.484 119.998 112.613 117.77 112.613C115.792 112.613 114.856 114.008 114.856 115.42C114.856 117.239 116.075 118.121 118.231 119.163C120.473 120.258 122.805 121.476 122.805 124.319C122.805 127.09 120.438 129.298 116.836 129.298C115.936 129.304 115.041 129.161 114.188 128.874C113.738 128.728 113.301 128.545 112.881 128.326C112.705 127.814 112.316 125.466 112.157 124.213L112.952 123.983C113.393 125.625 114.682 128.326 117.383 128.326C119.308 128.326 120.438 127.144 120.438 125.29C120.438 123.415 119.026 122.54 117.013 121.476C115.177 120.558 112.652 119.269 112.652 116.426C112.652 113.849 114.736 111.711 118.178 111.711C119.428 111.711 120.615 112.013 121.603 112.33C121.71 113.248 121.833 114.308 122.062 116.003L121.27 116.144Z" fill="black"/>
</g>
<defs>
<clipPath id="clip0_1_15989">
<rect width="150.33" height="133.139" fill="white"/>
</clipPath>
</defs>
</svg>
